<?xml version="1.0" encoding="UTF-8" standalone="no"?>
<svg
   xmlns:dc="http://purl.org/dc/elements/1.1/"
   xmlns:cc="http://creativecommons.org/ns#"
   xmlns:rdf="http://www.w3.org/1999/02/22-rdf-syntax-ns#"
   xmlns:svg="http://www.w3.org/2000/svg"
   xmlns="http://www.w3.org/2000/svg"
   xmlns:sodipodi="http://sodipodi.sourceforge.net/DTD/sodipodi-0.dtd"
   xmlns:inkscape="http://www.inkscape.org/namespaces/inkscape"
   width="400px"
   height="400px"
   viewBox="0 0 400 400"
   version="1.1"
   id="SVGRoot"
   sodipodi:docname="Web110.svg"
   inkscape:version="1.0.1 (3bc2e813f5, 2020-09-07)">
  <defs
     id="defs18" />
  <sodipodi:namedview
     id="base"
     pagecolor="#ffffff"
     bordercolor="#666666"
     borderopacity="1.0"
     inkscape:pageopacity="0.0"
     inkscape:pageshadow="2"
     inkscape:zoom="1.4"
     inkscape:cx="132.24948"
     inkscape:cy="231.08642"
     inkscape:document-units="px"
     inkscape:current-layer="layer1"
     inkscape:document-rotation="0"
     showgrid="false"
     inkscape:window-width="1267"
     inkscape:window-height="1040"
     inkscape:window-x="2076"
     inkscape:window-y="0"
     inkscape:window-maximized="0" />
  <metadata
     id="metadata21">
    <rdf:RDF>
      <cc:Work
         rdf:about="">
        <dc:format>image/svg+xml</dc:format>
        <dc:type
           rdf:resource="http://purl.org/dc/dcmitype/StillImage" />
      </cc:Work>
    </rdf:RDF>
  </metadata>
  <g
     inkscape:label="Layer 1"
     inkscape:groupmode="layer"
     id="layer1">
    <path
       style="fill:#000000;fill-opacity:1;fill-rule:nonzero;stroke:none"
       id="path41"
       d="m 26.21593,36.793943 c -3.2259,4.948474 -5.212079,10.543867 -7.037906,16.121064 -2.039071,7.682895 -4.025951,15.636359 -3.950384,23.651077 0.01151,1.220204 0.181679,2.433745 0.272519,3.650617 0.310139,0.978271 0.441544,2.032481 0.930419,2.934811 1.632489,3.013136 4.917845,3.663226 8.062394,3.1845 3.390217,-0.516126 4.912673,-1.58692 7.969429,-3.107084 8.473192,-5.318039 10.29913,-5.254725 15.39805,-10.849084 3.242335,-3.557379 5.722679,-7.727728 8.206895,-11.823755 0.246186,-0.315649 1.099386,-1.120283 0.73856,-0.946946 -3.178441,1.52689 -6.370892,3.080932 -9.29205,5.055953 -0.376104,0.254287 -0.137835,0.897926 -0.182303,1.349743 -0.345542,3.510893 -0.636767,7.030409 -0.968523,10.543129 -0.140616,5.167781 -1.009906,14.215655 2.509632,18.535852 0.653053,0.801616 1.587292,1.325431 2.380938,1.988147 1.117761,0.395299 2.195039,0.932672 3.353283,1.185897 5.326841,1.164599 12.247769,0.37197 17.246486,-1.742776 1.341654,-0.567597 2.565217,-1.381474 3.847825,-2.072211 3.874671,-2.616606 8.00142,-4.894056 11.624011,-7.849819 1.836529,-1.49847 4.128563,-6.578726 4.885028,-8.571105 2.217851,-5.841378 3.160742,-12.118163 4.2771,-18.227812 1.599339,-10.328567 3.307025,-20.634718 5.282677,-30.897899 0,0 -8.210469,3.999997 -8.210469,3.999997 v 0 c -1.743346,10.303113 -3.390731,20.623634 -5.310228,30.895904 -1.279675,6.083695 -2.336651,12.412486 -4.75449,18.186383 -0.665208,1.588543 -1.430486,3.144332 -2.344045,4.604256 -0.822243,1.313994 -4.045459,2.706033 -2.840845,3.681517 1.384663,1.121285 3.31717,-1.301793 4.975755,-1.952689 -1.246032,0.741008 -2.425464,1.607651 -3.738097,2.223025 -4.862251,2.279463 -11.40491,3.106543 -16.693278,2.125764 -1.05376,-0.19543 -2.048524,-0.630842 -3.072786,-0.946263 -0.724916,-0.549596 -1.575757,-0.964122 -2.174748,-1.64879 -3.524381,-4.028492 -2.724484,-12.962538 -2.483389,-17.863932 0.53659,-4.487094 0.409049,-3.705733 1.042853,-7.964394 0.140368,-0.943166 0.314559,-1.881369 0.439351,-2.826721 0.08478,-0.642271 0.816872,-2.094449 0.189135,-1.934303 -8.720879,2.224836 -8.078045,1.430353 -10.037275,5.21303 -2.230141,4.042194 -4.658046,8.008354 -7.860204,11.372073 -1.05685,1.110173 -4.486945,2.104972 -3.357854,3.141587 1.22079,1.120804 3.01133,-1.384922 4.516994,-2.077383 -1.27967,0.694186 -2.506033,1.497218 -3.83901,2.082559 -2.61031,1.146248 -6.550814,2.393497 -9.307156,0.787073 -1.863509,-1.086072 -1.94241,-2.493642 -2.605807,-4.370855 -0.11569,-1.158075 -0.313353,-2.310873 -0.347071,-3.474224 -0.230102,-7.93919 1.840018,-15.828743 4.036318,-23.376669 2.014239,-5.648719 4.163176,-11.422669 7.964022,-16.151293 0,0 -9.741756,4.162049 -9.741756,4.162049 z" />
    <path
       style="fill:#000000;fill-opacity:1;fill-rule:nonzero;stroke:none"
       id="path43"
       d="m 124.20283,37.537614 c -3.32945,14.108504 -7.11893,28.083228 -11.35207,41.946165 -5.12026,15.838941 -0.47253,1.549582 -5.14424,15.690922 -1.11701,3.38122 -4.05181,9.541059 -1.40506,13.075359 0.73338,0.9793 1.96053,1.46418 2.9408,2.19628 1.46564,0.43913 2.89798,1.01067 4.39694,1.3174 3.19862,0.65454 8.40579,0.96061 11.61076,1.12624 2.46148,0.1272 7.97874,0.3176 10.60297,0.24093 1.23952,-0.0362 2.47294,-0.18838 3.70941,-0.28256 0,0 7.92851,-5.88742 7.92851,-5.88742 v 0 c -1.28519,0.16914 -2.56235,0.41854 -3.85557,0.50741 -2.871,0.19727 -7.97971,0.0797 -10.74395,-0.0522 -3.41613,-0.16309 -7.81602,-0.4557 -11.20718,-1.1518 -1.37081,-0.28138 -2.68796,-0.77978 -4.03193,-1.16967 -0.85978,-0.57036 -1.91729,-0.91976 -2.57934,-1.7111 -2.52838,-3.02217 -0.023,-9.096203 0.8396,-12.078362 1.07029,-3.700067 3.63467,-12.087939 4.66376,-15.474424 2.7024,-8.910267 3.05034,-9.996222 5.69505,-18.963839 2.34773,-7.960612 4.48881,-16.007422 7.41378,-23.782509 0,0 -9.48224,4.453218 -9.48224,4.453218 z" />
    <path
       style="fill:#000000;fill-opacity:1;fill-rule:nonzero;stroke:none"
       id="path45"
       d="m 114.95002,78.050529 c 0.69366,-0.284158 1.36694,-0.624343 2.08099,-0.852475 4.36993,-1.396146 9.02462,-2.430223 13.4849,-3.359883 7.72423,-1.609968 11.06493,-2.094191 18.807,-3.394277 0,0 6.89654,-5.187924 6.89654,-5.187924 v 0 c -7.62243,1.277439 -10.995,1.817738 -18.59227,3.190135 -3.43447,0.620416 -8.83416,1.600681 -12.51152,2.452022 -0.64056,0.148296 -1.26502,0.359132 -1.89753,0.538699 0,0 -8.26811,6.613703 -8.26811,6.613703 z" />
    <path
       style="fill:#000000;fill-opacity:1;fill-rule:nonzero;stroke:none"
       id="path47"
       d="m 128.55336,43.104537 c 13.11338,-0.405487 26.23041,-0.734052 39.34678,-1.040243 0,0 7.09215,-5.182282 7.09215,-5.182282 v 0 c -12.62763,0.391869 -25.26782,0.676198 -37.89288,0.01345 0,0 -8.54605,6.209074 -8.54605,6.209075 z" />
    <path
       style="fill:#000000;fill-opacity:1;fill-rule:nonzero;stroke:none"
       id="path49"
       d="m 183.76258,43.824481 c -1.12887,12.175742 -2.08813,24.365925 -2.98529,36.561256 -0.55228,8.631281 -1.32579,17.241531 -2.21753,25.843213 -0.029,0.64089 -0.16648,1.99776 0.0429,2.7043 0.71921,2.42638 3.93,2.91217 5.93751,3.52544 7.23413,1.71482 14.85563,3.61058 22.33974,2.38286 1.56412,-0.25659 3.06572,-0.80662 4.59859,-1.20993 5.98009,-3.16786 9.8399,-4.98059 15.62773,-10.40639 1.21699,-1.14086 1.59692,-2.95201 2.09976,-4.542535 0.99064,-3.133464 1.32413,-7.131766 0.71658,-10.374045 -0.32747,-1.747602 -1.12838,-3.372262 -1.69256,-5.058393 -2.82736,-5.130887 -7.26781,-8.641926 -11.96998,-11.938466 -2.42823,-1.702353 -5.18088,-3.037926 -7.2662,-5.172407 4.12208,0.930637 -1.6579,-0.651616 -5.59986,5.034202 -0.69047,0.995921 2.41297,-0.235752 3.61296,-0.404943 1.34088,-0.189054 2.69024,-0.352947 4.00688,-0.669405 6.55348,-1.575144 8.22191,-3.98051 15.41701,-8.504851 0.65173,-1.228259 1.56831,-2.349226 1.95518,-3.684777 1.01578,-3.506615 0.33474,-6.588492 -1.0268,-9.909385 -1.52875,-3.728729 -4.52311,-8.072159 -7.1673,-11.04616 -1.55558,-1.749621 -3.36376,-3.257172 -5.04565,-4.885759 -1.82603,-1.347993 -3.58692,-2.789024 -5.4781,-4.043979 -4.86906,-3.231017 -11.06781,-6.525248 -16.99107,-7.219696 -0.79329,-0.09301 -1.59724,-0.02638 -2.39586,-0.03957 0,0 -8.21716,6.014941 -8.21716,6.014941 v 0 c 0.80486,-0.07031 1.60699,-0.234017 2.41458,-0.210926 6.02509,0.172271 12.43874,3.23836 17.40102,6.39668 1.8855,1.20006 3.63026,2.608128 5.44538,3.912193 1.64397,1.595057 3.42137,3.063221 4.9319,4.78517 2.59613,2.95948 5.36169,7.111315 6.72371,10.862226 1.13246,3.118687 1.60424,6.198526 0.43507,9.37644 -0.45533,1.237618 -1.41092,2.228313 -2.11639,3.342469 1.76584,-0.797953 3.68987,-1.312008 5.29751,-2.393858 1.09493,-0.736822 -2.45058,1.000505 -3.72677,1.336839 -1.26835,0.334272 -2.57638,0.505295 -3.87799,0.667371 -1.12989,0.140694 -2.34121,-0.159719 -3.40743,0.239807 -3.89012,1.457674 -7.69293,3.198031 -11.29415,5.269047 -0.3714,0.213591 -0.0644,0.854456 -0.0967,1.281684 2.5699,1.772214 5.4059,3.066384 8.02528,4.772913 4.6739,3.045052 8.93012,6.438396 11.62906,11.443917 0.51888,1.608457 1.27185,3.159457 1.55663,4.825371 0.54191,3.170145 0.13381,6.957075 -0.96956,9.967525 -0.55583,1.51655 -3.40444,3.13103 -2.27014,4.2809 1.21511,1.23179 3.60924,-2.65972 4.94921,-1.56507 1.19321,0.97477 -2.64852,1.57517 -3.97277,2.36275 -1.50293,0.45869 -2.96718,1.07169 -4.50879,1.37605 -7.27023,1.4354 -14.73779,-0.41963 -21.7179,-2.34046 -1.23319,-0.43097 -4.54747,-1.12074 -5.03065,-2.7065 -0.19915,-0.65358 -0.14924,-1.82292 -0.15644,-2.41952 0.37206,-8.423222 0.68805,-16.848104 1.0643,-25.270962 0.82299,-12.476463 1.80609,-24.975734 4.41729,-37.230035 0,0 -9.44682,4.682455 -9.44682,4.682455 z" />
    <path
       style="fill:#000000;fill-opacity:1;fill-rule:nonzero;stroke:none"
       id="path51"
       d="m 21.730891,149.59113 c 0.106746,0.68589 0.196312,1.37467 0.320238,2.05766 1.261405,6.95194 2.504863,13.86169 3.355667,20.88623 1.402198,11.57705 1.545923,15.38547 2.452102,27.3548 0.863047,19.07101 0.547461,9.75879 0.976233,27.93565 0,0 6.933679,-3.56304 6.933679,-3.56304 v 0 c -0.820329,-18.03914 -0.395587,-8.77026 -1.27533,-27.8066 -0.546275,-10.45836 -0.869066,-17.53432 -1.579094,-27.84936 -0.497736,-7.23094 -1.341645,-14.45151 -1.766609,-21.68666 -0.04136,-0.70411 -0.01435,-1.41057 -0.02153,-2.11586 0,0 -9.395361,4.78718 -9.395361,4.78718 z" />
    <path
       style="fill:#000000;fill-opacity:1;fill-rule:nonzero;stroke:none"
       id="path53"
       d="m 71.832215,152.28208 c 3.821159,12.80455 5.866427,26.0355 7.81091,39.22684 1.090793,8.30808 2.166895,16.61807 3.241892,24.9282 0,0 8.210554,-4.3499 8.210554,-4.3499 v 0 c -1.570165,-8.11056 -3.051494,-16.23872 -4.150568,-24.42968 -1.84455,-13.45711 -3.649054,-26.92457 -5.749193,-40.3429 0,0 -9.363595,4.96744 -9.363595,4.96744 z" />
    <path
       style="fill:#000000;fill-opacity:1;fill-rule:nonzero;stroke:none"
       id="path61"
       d="m 140.96872,146.15635 c -1.83523,-0.17217 -3.6355,0.25441 -5.24403,1.18697 -3.88131,2.25023 -7.83368,4.41572 -11.46451,7.0511 -2.28016,1.65501 -5.20356,6.68275 -6.5364,8.7236 -1.01482,2.2632 -2.21057,4.45368 -3.04448,6.78961 -3.72981,10.44792 -4.74068,23.34175 -0.0316,33.68517 1.25861,2.76452 3.21987,5.15162 4.82981,7.72744 2.31676,2.18687 4.40572,4.64359 6.95028,6.56062 7.48803,5.64138 17.96651,9.94416 27.48216,9.71407 2.78375,-0.0673 5.71083,-0.32161 8.2079,-1.55383 4.96838,-2.45173 9.18573,-6.19719 13.7786,-9.29579 0.9711,-2.75634 2.59747,-5.36372 2.91331,-8.26901 0.83849,-7.71299 -2.04509,-15.967 -5.13629,-22.76143 -3.53224,-7.76381 -8.89119,-15.78908 -14.19057,-22.45445 -2.3323,-2.93349 -4.98446,-5.59777 -7.4767,-8.39666 -2.20194,-2.05175 -4.40389,-4.10351 -6.60583,-6.15526 0,0 -7.40399,4.60072 -7.40399,4.60072 v 0 c 2.32332,1.94314 4.64664,3.88628 6.96996,5.82942 2.58464,2.70723 5.3605,5.24401 7.75392,8.12168 5.47435,6.58192 10.66505,14.36893 14.02307,22.27301 2.91081,6.85143 5.30535,15.03603 4.08174,22.65107 -0.45275,2.81766 -2.17716,5.27605 -3.26574,7.91408 3.52334,1.2743 5.80567,1.76802 -6.59991,2.48972 -9.47434,0.55118 -19.75196,-3.60865 -27.18334,-9.23778 -2.47537,-1.87504 -4.50111,-4.27937 -6.75166,-6.41905 -1.54968,-2.52025 -3.43983,-4.86056 -4.64904,-7.56074 -4.64598,-10.37453 -3.52356,-22.88793 0.55058,-33.21635 0.92411,-2.3427 2.23884,-4.51182 3.35825,-6.76773 1.23274,-1.71115 2.34696,-3.51425 3.69822,-5.13343 1.06196,-1.27252 5.12117,-3.09255 3.51814,-3.51372 -2.08002,-0.5465 -3.83953,1.93886 -5.74945,2.92748 -0.68937,0.35684 1.36685,-0.74381 2.08762,-1.03203 0.47811,-0.19118 0.98371,-0.31845 1.49222,-0.39944 0.31628,-0.0504 0.6405,0.006 0.96076,0.009 0,0 8.67701,-6.08785 8.67701,-6.08785 z" />
    <path
       sodipodi:type="star"
       style="fill:#ffff00;fill-rule:evenodd"
       id="path99"
       sodipodi:sides="5"
       sodipodi:cx="169.28571"
       sodipodi:cy="152.85715"
       sodipodi:r1="17.395636"
       sodipodi:r2="8.6978178"
       sodipodi:arg1="3.0259835"
       sodipodi:arg2="3.6543021"
       inkscape:flatsided="false"
       inkscape:rounded="0"
       inkscape:randomized="0"
       d="m 152.00619,154.86377 9.70008,-6.27325 0.33136,-11.54709 8.9637,7.28678 11.08434,-3.25309 -4.16021,10.77672 6.51913,9.53656 -11.53485,-0.62639 -7.05529,9.14701 -2.96873,-11.16386 z"
       inkscape:transform-center-x="1.0603169"
       inkscape:transform-center-y="0.62007875" />
    <text
       xml:space="preserve"
       style="font-style:normal;font-weight:normal;font-size:40px;line-height:1.25;font-family:sans-serif;fill:#008080;fill-opacity:1;stroke:none;"
       x="2.142858"
       y="345"
       id="text103"><tspan
         sodipodi:role="line"
         id="tspan101"
         x="2.142858"
         y="345">Online Learning</tspan><tspan
         sodipodi:role="line"
         x="2.142858"
         y="395"
         id="tspan105">2020</tspan></text>
  </g>
</svg>
