<!--?xml version="1.0" standalone="no"?-->
              <svg id="sw-js-blob-svg" viewBox="0 0 100 100" xmlns="http://www.w3.org/2000/svg" version="1.1">
                    <defs> 
                        <linearGradient id="sw-gradient" x1="0" x2="1" y1="1" y2="0">
                            <stop id="stop1" stop-color="rgba(248, 117, 55, 1)" offset="0%"></stop>
                            <stop id="stop2" stop-color="rgba(255, 164.261, 14.487, 1)" offset="100%"></stop>
                        </linearGradient>
                    </defs>
                <path fill="url(#sw-gradient)" d="M29.2,-33.9C37.2,-28,42.8,-18.3,44.7,-7.8C46.6,2.6,44.8,13.7,39.2,21.9C33.6,30,24.2,35.3,15,36.5C5.9,37.7,-2.9,34.8,-11.2,31.5C-19.5,28.1,-27.3,24.2,-32,17.7C-36.8,11.1,-38.5,2,-36.7,-6.2C-34.9,-14.3,-29.5,-21.6,-22.8,-27.7C-16.1,-33.8,-8.1,-38.8,1.2,-40.3C10.6,-41.8,21.1,-39.8,29.2,-33.9Z" width="100%" height="100%" transform="translate(50 50)" stroke-width="0" style="transition: all 0.3s ease 0s;"></path>
              </svg>