<?xml version="1.0" standalone="no"?>
<!DOCTYPE svg PUBLIC "-//W3C//DTD SVG 20010904//EN"
 "http://www.w3.org/TR/2001/REC-SVG-20010904/DTD/svg10.dtd">
<svg version="1.0" xmlns="http://www.w3.org/2000/svg"
 width="384.000000pt" height="211.000000pt" viewBox="0 0 384.000000 211.000000"
 preserveAspectRatio="xMidYMid meet">

<g transform="translate(0.000000,211.000000) scale(0.100000,-0.100000)"
fill="#000000" stroke="none">
<path d="M1735 2085 c-133 -24 -275 -84 -400 -168 -68 -46 -204 -180 -253
-250 l-33 -47 34 0 c29 0 39 7 62 40 80 116 263 255 415 316 395 160 851 45
1125 -284 48 -57 66 -72 87 -72 16 0 28 3 28 8 0 23 -141 180 -217 241 -89 72
-243 157 -338 186 -143 44 -363 57 -510 30z"/>
<path d="M2942 1395 c-105 -32 -156 -106 -156 -225 0 -82 13 -117 61 -162 96
-91 287 -49 344 76 26 57 25 164 -1 215 -24 48 -70 87 -118 101 -48 13 -77 12
-130 -5z m138 -33 c46 -33 65 -88 65 -182 0 -99 -24 -157 -78 -191 -38 -24
-111 -22 -152 5 -80 53 -91 257 -17 340 9 10 31 27 47 38 35 22 96 18 135 -10z"/>
<path d="M40 1181 l0 -221 63 0 c155 1 245 33 287 103 43 70 33 190 -21 252
-49 55 -109 77 -226 83 l-103 5 0 -222z m209 185 c79 -41 122 -142 102 -237
-22 -100 -85 -148 -193 -149 l-58 0 0 194 c0 146 3 196 13 199 26 11 109 6
136 -7z"/>
<path d="M560 1180 l0 -220 129 0 c110 0 130 2 135 16 4 9 5 19 3 21 -2 2 -44
-1 -93 -7 -49 -5 -95 -10 -101 -10 -10 0 -13 27 -13 100 l0 100 75 0 c43 0 75
4 75 10 0 6 -32 10 -75 10 l-76 0 3 88 3 87 47 3 c26 2 70 -1 98 -6 45 -8 50
-8 50 9 0 18 -10 19 -130 19 l-130 0 0 -220z"/>
<path d="M945 1383 c3 -10 47 -112 97 -227 67 -153 94 -203 99 -190 4 11 39
102 79 204 40 102 76 195 81 208 6 15 5 22 -4 22 -7 0 -41 -80 -77 -180 -36
-99 -68 -180 -71 -180 -3 0 -23 44 -44 98 -101 255 -104 262 -137 262 -25 0
-29 -3 -23 -17z"/>
<path d="M1430 1179 l0 -222 100 6 c123 6 185 32 206 84 25 58 5 95 -72 132
l-39 19 26 10 c64 25 89 103 45 147 -32 32 -85 45 -183 45 l-83 0 0 -221z
m204 176 c37 -34 36 -87 -3 -126 -26 -25 -37 -29 -85 -29 l-56 0 0 84 c0 94 0
94 71 95 36 1 52 -5 73 -24z m-55 -176 c155 -33 122 -207 -37 -197 l-47 3 -3
89 c-4 127 -5 125 87 105z"/>
<path d="M1860 1379 c0 -16 4 -19 18 -14 9 4 41 9 70 12 l52 6 0 -212 0 -211
25 0 25 0 0 205 c0 234 -4 225 86 208 49 -9 54 -8 54 9 0 17 -12 18 -165 18
-161 0 -165 0 -165 -21z"/>
<path d="M2320 1180 l0 -220 25 0 25 0 0 110 0 110 110 0 110 0 0 -110 0 -110
25 0 25 0 0 220 0 220 -25 0 c-24 0 -24 -1 -27 -97 l-3 -98 -107 -3 -108 -3 0
101 0 100 -25 0 -25 0 0 -220z"/>
<path d="M3366 1303 c-16 -257 -19 -343 -9 -343 10 0 23 164 23 292 0 37 4 69
8 72 5 3 44 -74 87 -170 43 -96 82 -177 85 -179 4 -3 36 60 70 138 35 78 72
162 83 187 17 39 21 42 28 25 4 -11 8 -50 8 -86 1 -36 4 -114 8 -172 l6 -107
30 0 30 0 -7 93 c-3 50 -9 149 -12 220 l-7 127 -31 0 c-31 0 -32 -2 -105 -171
-41 -93 -77 -166 -81 -162 -4 4 -40 81 -80 171 -68 151 -75 162 -100 162 l-27
0 -7 -97z"/>
<path d="M1025 543 c97 -180 306 -363 508 -445 171 -70 389 -95 564 -64 121
21 267 74 366 133 134 80 288 238 376 386 l23 37 -34 0 c-30 -1 -37 -7 -75
-68 -79 -127 -210 -250 -353 -330 -137 -77 -384 -131 -540 -117 -144 12 -312
63 -422 128 -126 74 -261 202 -338 320 -37 58 -47 67 -72 67 l-29 0 26 -47z"/>
</g>
</svg>
