<svg xmlns="http://www.w3.org/2000/svg" viewBox="0 0 500 500"><defs><style>.a{fill:#8a817c;}.b,.c{fill:#463f3a;}.c{font-size:275px;font-family:Oswald-Light, Oswald;font-weight:300;}</style></defs><path class="a" d="M250,495A245,245,0,0,1,76.76,76.76,245,245,0,1,1,423.24,423.24,243.37,243.37,0,0,1,250,495Z"/><path class="b" d="M250,10a240.06,240.06,0,0,1,93.42,461.14A240.06,240.06,0,0,1,156.58,28.86,238.42,238.42,0,0,1,250,10m0-10C111.93,0,0,111.93,0,250S111.93,500,250,500,500,388.07,500,250,388.07,0,250,0Z"/><text class="c" transform="translate(82.11 319.49)">H</text><text class="c" transform="translate(282.59 426.38)">D</text><path class="b" d="M63,109.8C33.88,158,27.47,216.92,50.93,267.83a177,177,0,0,0,12.36,22.68c2.89,4.64,6.39,8.92,9.64,13.32L79.06,311c2.54,2.57,5.58,6.07,8.28,8.48,18.62,18,41.69,31.62,66,40.86-50.64-2.54-97.58-36.29-119.28-81.84a164.9,164.9,0,0,1-7.2-17.13c-.52-1.61-1.9-5.93-2.43-7.6-.71-3-2.08-7.28-2.61-10.31S20.26,236,20,233c-.07-.82-.79-5.84-.86-6.6-.12-1-.15-3-.25-4A133,133,0,0,1,19,201.19C21.54,166.77,37.2,132.84,63,109.8Z"/><path class="b" d="M255.48,87.08c23.11,17.28,43.72,41.22,48.49,70.57,2.51,14.93-.61,30.62-5.68,44.56-2.41,6.95-5.18,13.61-7.91,20.21s-5.73,13.63-9,20-7.15,12.55-10.54,18.76c-3.31,6-6.29,12.13-9.22,18.53-5.88,12.93-12,25.55-15.7,38.13a124.66,124.66,0,0,0-4.67,29.24c-1.36,22.45,4.48,45.38,19.39,62.27,16.41,18.84,43.54,30.41,68.46,32.19,33.79,2.11,64.93-15.94,87.92-39.71a135.5,135.5,0,0,0,16.21-19.7,141.08,141.08,0,0,0,7.84-13.23c.74-1.51,2.64-5.49,3.36-7s2.24-5.6,2.93-7.18c.94-2.82,2.52-7,3.27-9.85A158.43,158.43,0,0,0,457,298.16c-.09-3.55-.2-7.1-.47-10.66a145.68,145.68,0,0,1-1.21,69.81c-.5,1.77-1.91,6.2-2.41,7.91s-2.28,6-2.89,7.76c-.94,2.5-2.35,5.12-3.4,7.58-.66,1.79-3,5.63-3.86,7.38-4.4,8.2-10.09,15.62-16,22.7-24.84,29.73-61.49,51.57-101.28,49.14-29.66-2.16-59.83-14.78-79.79-37.33-18.56-20.64-26.11-49.49-23.95-76.54.83-11.5,2.47-22.77,6.1-33.69,4.63-14.21,11.35-27.12,18-40.19a263,263,0,0,1,16.42-28.42,203.52,203.52,0,0,0,12.67-22.36c3.84-7.79,7.83-16,11.23-23.78,4.06-9.41,7.25-18.75,8.09-28.82,2.44-31.35-17.44-60-38.7-81.57Z"/></svg>